<svg xmlns="http://www.w3.org/2000/svg" viewBox="0 0 184.14 66.78"><defs><style>.cls-1{fill:#b410cc;}.cls-2{fill:#d56a88;}.cls-3{fill:#f6c343;}.cls-4{fill:#616bd0;}.cls-5{fill:#0e0e10;}.cls-6{fill:#0ec6d4;}.cls-7{fill:#82c58c;}.cls-8{fill:#1d1d1b;}</style></defs><g id="Calque_2" data-name="Calque 2"><g id="Calque_2-2" data-name="Calque 2"><path class="cls-1" d="M41,22.41v.2a17.54,17.54,0,0,0-15.62,2.16,17.57,17.57,0,0,0-15.24-2.29v-.07a15.43,15.43,0,0,1,30.86,0Z"/><path class="cls-1" d="M18.09,35.9a15.52,15.52,0,0,1-7.78-11.22,15.37,15.37,0,0,1,13.31,1.48A17.57,17.57,0,0,0,18.09,35.9Z"/><path class="cls-1" d="M30.7,37a15.46,15.46,0,0,1-5.12.87,15.2,15.2,0,0,1-5.49-1,15.47,15.47,0,0,1,5.3-9.38A15.43,15.43,0,0,1,30.7,37Z"/><path class="cls-1" d="M35.34,23.8a15.42,15.42,0,0,1,5.49,1,15.46,15.46,0,0,1-8.11,11.28,17.54,17.54,0,0,0-5.57-9.93A15.37,15.37,0,0,1,35.34,23.8Z"/><path class="cls-1" d="M25.58,37.84a15.2,15.2,0,0,1-5.49-1,15.47,15.47,0,0,1,5.3-9.38A15.43,15.43,0,0,1,30.7,37,15.46,15.46,0,0,1,25.58,37.84Z"/><path class="cls-2" d="M35.34,23.8a15.42,15.42,0,0,1,5.49,1,15.46,15.46,0,0,1-8.11,11.28,17.54,17.54,0,0,0-5.57-9.93A15.37,15.37,0,0,1,35.34,23.8Z"/><path class="cls-1" d="M30.87,39.24A15.39,15.39,0,0,1,25.39,51a15.39,15.39,0,0,1-5.48-11.78V39a17.49,17.49,0,0,0,11,.12A.22.22,0,0,1,30.87,39.24Z"/><path class="cls-3" d="M50.77,39.24A15.45,15.45,0,0,1,35.34,54.67a15.29,15.29,0,0,1-8.19-2.36A17.51,17.51,0,0,0,33,39.24c0-.3,0-.6,0-.9a17.62,17.62,0,0,0,9.85-12.59A15.43,15.43,0,0,1,50.77,39.24Z"/><path class="cls-4" d="M18.09,35.9a15.52,15.52,0,0,1-7.78-11.22,15.37,15.37,0,0,1,13.31,1.48A17.57,17.57,0,0,0,18.09,35.9Z"/><path class="cls-5" d="M25.58,37.84a15.2,15.2,0,0,1-5.49-1,15.47,15.47,0,0,1,5.3-9.38A15.43,15.43,0,0,1,30.7,37,15.46,15.46,0,0,1,25.58,37.84Z"/><path class="cls-6" d="M17.81,38.16c0,.36,0,.71,0,1.08a17.49,17.49,0,0,0,5.85,13.07,15.26,15.26,0,0,1-8.19,2.36A15.43,15.43,0,0,1,8.3,25.56,17.59,17.59,0,0,0,17.81,38.16Z"/><path class="cls-7" d="M30.87,39.24A15.39,15.39,0,0,1,25.39,51a15.39,15.39,0,0,1-5.48-11.78V39a17.49,17.49,0,0,0,11,.12A.22.22,0,0,1,30.87,39.24Z"/><path class="cls-8" d="M68.29,9.45a10,10,0,0,1,7.28,2.74c1.86,1.83,2.8,4.5,2.8,8v4.92a8.47,8.47,0,0,1-1.26,4.75,6.57,6.57,0,0,1-3.53,2.68v.25a6.13,6.13,0,0,1,3.56,2.68,9,9,0,0,1,1.23,4.82v7.12c0,.63,0,1.21,0,1.73s0,1,.09,1.48.1.91.16,1.32.14.87.22,1.33v.25H69.42c-.17-1-.29-2-.38-2.9s-.12-1.95-.12-3.21V37.67a1.71,1.71,0,0,0-.16-.88.51.51,0,0,0-.47-.25h-.63v17H58.21V9.45ZM67.66,29h.63a.51.51,0,0,0,.47-.25,1.9,1.9,0,0,0,.16-.95V18.14a1.71,1.71,0,0,0-.16-.88.51.51,0,0,0-.47-.25h-.63Z"/><path class="cls-8" d="M90.18,16.32a.55.55,0,0,0-.94,0,1.69,1.69,0,0,0-.16.88V45.74a1.47,1.47,0,0,0,.22.91.65.65,0,0,0,.53.28.78.78,0,0,0,.57-.25,1.31,1.31,0,0,0,.25-.94V37.86h-.82V30.3h10V53.55H91.47l-.56-4.35h-.26A5.36,5.36,0,0,1,89.24,53a5.09,5.09,0,0,1-3.94,1.54A4.57,4.57,0,0,1,81,52q-1.35-2.46-1.35-7.69V18.58q0-5.22,2.83-7.65A10.75,10.75,0,0,1,89.71,8.5,10.68,10.68,0,0,1,97,10.93q2.8,2.43,2.81,7.65v7.56H90.34V17.2A1.69,1.69,0,0,0,90.18,16.32Z"/><path class="cls-8" d="M121.21,23.25A8.47,8.47,0,0,1,120,28a6.57,6.57,0,0,1-3.53,2.68v.25A6.13,6.13,0,0,1,120,33.61a9,9,0,0,1,1.23,4.82v5q0,5.16-2.81,7.65a10.52,10.52,0,0,1-7.27,2.49H101.05V9.45h10.08a10.68,10.68,0,0,1,7.27,2.43q2.8,2.41,2.81,7.65Zm-9.61-6a.51.51,0,0,0-.47-.25h-.63V27.09h.63a.53.53,0,0,0,.28-.06.7.7,0,0,0,.19-.22,1.07,1.07,0,0,0,.13-.38,4.16,4.16,0,0,0,0-.54V18.14A1.71,1.71,0,0,0,111.6,17.26Zm0,17.64a.51.51,0,0,0-.47-.25h-.63V46h.63a.51.51,0,0,0,.47-.25,1.92,1.92,0,0,0,.16-1v-9A1.71,1.71,0,0,0,111.6,34.9Z"/><path class="cls-8" d="M141.37,53.55h-9.45l-.25-27-.19-4.54h-.38l-.19,4.54-.25,27h-9.45l3.84-44.1h12.48Zm-15-16.7h9.9v7.56h-9.9Z"/><path class="cls-8" d="M152.2,23.62V17.2a2.22,2.22,0,0,0-.12-.88.46.46,0,0,0-.44-.26.6.6,0,0,0-.54.26,1.8,1.8,0,0,0-.16.88v3.9a5.53,5.53,0,0,0,1.3,3.47,38.2,38.2,0,0,0,3,3.34c.75.71,1.51,1.48,2.27,2.3a18,18,0,0,1,2,2.68,15.06,15.06,0,0,1,1.52,3.18,11.94,11.94,0,0,1,.59,3.93v4.35q0,5-2.7,7.56a11.83,11.83,0,0,1-14.75,0c-1.8-1.72-2.71-4.24-2.71-7.56v-6.3h9.45v7.69a2,2,0,0,0,.16.94.52.52,0,0,0,.47.25.53.53,0,0,0,.48-.25,2,2,0,0,0,.15-.94V40.57a4.54,4.54,0,0,0-.44-1.92,10.53,10.53,0,0,0-1.16-1.95,22.08,22.08,0,0,0-1.67-2q-.94-1-2-1.92c-.68-.67-1.34-1.38-2-2.14a16.85,16.85,0,0,1-1.76-2.46A12.34,12.34,0,0,1,142,25.33a12.1,12.1,0,0,1-.48-3.53V18.58c0-3.31.91-5.82,2.71-7.52a11.89,11.89,0,0,1,14.78,0q2.67,2.58,2.67,7.49v5Z"/><path class="cls-8" d="M180.55,17h-4.4V53.55h-9.46V17h-4.41V9.45h18.27Z"/></g></g></svg>