<svg xmlns="http://www.w3.org/2000/svg" viewBox="0 0 2139.83 414.26"><defs><style>.cls-1{fill:#f25b23;}.cls-2{fill:#26689e;}.cls-3{fill:#fede00;}.cls-4{fill:#ef7d33;}.cls-5{fill:#8ec73f;}.cls-6{fill:#941f62;}.cls-7{fill:#ee1d24;}</style></defs><g id="Calque_2" data-name="Calque 2"><g id="Calque_1-2" data-name="Calque 1"><path class="cls-1" d="M1.47,259.72C-4.89,193.44,8.92,135.17,52,83A229.24,229.24,0,1,1,404.24,376.46c-5.82,7-14.72,17.11-22,22.35-4.77-4.82-12.46-12.19-16.27-17.38-18.37,15.36-28.15,21.68-49.12,32.83l-8.17-18.32c-42.16,19-75.62,21.2-121,13.66q2.48-10.37,4.59-20.8a205.31,205.31,0,0,0,29.93,3.69,160.08,160.08,0,0,0,105.94-34.06c8.86-7,16.56-15.1,24.86-22.78-3.44-3.81-13.71-12.69-17.89-16.17,13.4-16.56,18.95-28.08,26.87-47.74-1.7-1-9.06-2.61-11.43-3.19C338,303.21,316.85,329.17,283.07,345a129.89,129.89,0,0,1-98.61,4.26c-18.92-6.89-43.45-22.94-55.15-39.49l-10.2,8.11c-12.38-16.82-18.75-27.71-25.26-47.79-6.42,2.29-16.29,4.82-23.07,6.78-4.41-18-6.64-29.92-6.47-48.31a199,199,0,0,1-19.9-2.54,134.81,134.81,0,0,1,1.26-22.92c-4.82-1.43-12.8-3-17.91-4.19-4.37,15.86-2.66,43-1.19,59.52C17.76,258.59,9.83,259.5,1.47,259.72Zm153.6,25.73L139,296.82c18.1,17.58,23.49,26.47,49,36.44a110.34,110.34,0,0,0,85.49-1.75c28.44-12.56,49.06-35.33,60.2-64.15q-8.29-3-16.82-5.37c-10.88,27.81-27.51,42.77-54,55.07l-8.21-24.29c36.58-17.61,53.83-56.56,35.48-94a68.11,68.11,0,0,0-39.57-34.9,67.3,67.3,0,0,0-52,3.62,70.24,70.24,0,0,0-35.17,40.36c-5,15.39-3.85,31,1.21,46.13-7.72,2.84-15.38,5.72-23.22,8.23C146,270.8,148.94,277.83,155.07,285.45ZM220,64.92c1.23,8,1.92,15.59,2.68,23.68,28.94-.32,49.4,3.82,75.25,17.73,3.08-6.39,6.92-15,10.95-20.55-5.08-1-18.65-8.57-24.72-10.72C262.49,67.4,242.65,65.55,220,64.92Zm75.15,72.53,8.7-11.1c-34.8-20.49-64.67-31.06-106-20.37a128.11,128.11,0,0,0-78.62,59c-14,23.81-15.91,41-18.2,67.51l14.4-.1c-2.35-46,26.32-86.61,66.65-106.27,2.6,5,5.53,11.82,8,17.06,18.11-8,30.59-7.83,49.81-7.54a103.43,103.43,0,0,0,2.58-18.68C263.45,120,277.68,125.73,295.14,137.45Z"/><path class="cls-2" d="M1.47,259.72C-4.89,193.44,8.92,135.17,52,83A229.24,229.24,0,1,1,404.24,376.46c-5.82,7-14.72,17.11-22,22.35-4.77-4.82-12.46-12.19-16.27-17.38-18.37,15.36-28.15,21.68-49.12,32.83l-8.17-18.32c-42.16,19-75.62,21.2-121,13.66q2.48-10.37,4.59-20.8a205.31,205.31,0,0,0,29.93,3.69,160.08,160.08,0,0,0,105.94-34.06c8.86-7,16.56-15.1,24.86-22.78-3.44-3.81-13.71-12.69-17.89-16.17,13.4-16.56,18.95-28.08,26.87-47.74,2.1-2,3.29-7.31,3.91-10.18,13.48-63.31-12.46-122.36-68-155.23,3.08-6.39,6.92-15,10.95-20.55-5.08-1-18.65-8.57-24.72-10.72-21.66-7.66-41.5-9.51-64.16-10.14-85.64,5-158.44,76.49-155.68,163.67a199,199,0,0,1-19.9-2.54,134.81,134.81,0,0,1,1.26-22.92c-4.82-1.43-12.8-3-17.91-4.19-4.37,15.86-2.66,43-1.19,59.52C17.76,258.59,9.83,259.5,1.47,259.72Z"/><path class="cls-3" d="M45.67,203.13A183,183,0,0,1,118,80.7a185.11,185.11,0,0,1,221.4,296.72c-10.27,7.67-19.37,12.77-30.73,18.52-42.16,19-75.62,21.2-121,13.66q2.48-10.37,4.59-20.8a205.31,205.31,0,0,0,29.93,3.69,160.08,160.08,0,0,0,105.94-34.06c8.86-7,16.56-15.1,24.86-22.78-3.44-3.81-13.71-12.69-17.89-16.17,13.4-16.56,18.95-28.08,26.87-47.74,2.1-2,3.29-7.31,3.91-10.18,13.48-63.31-12.46-122.36-68-155.23,3.08-6.39,6.92-15,10.95-20.55-5.08-1-18.65-8.57-24.72-10.72-21.66-7.66-41.5-9.51-64.16-10.14-85.64,5-158.44,76.49-155.68,163.67a199,199,0,0,1-19.9-2.54A134.81,134.81,0,0,1,45.67,203.13Z"/><path class="cls-4" d="M308.87,85.78c6.75,2.14,14.62,8.71,20.19,13A156.06,156.06,0,0,1,374.12,152a165.43,165.43,0,0,1,11.36,127.34c-3.55,11.18-22.61,53.24-32.48,56.31-3.44-3.81-13.71-12.69-17.89-16.17,13.4-16.56,18.95-28.08,26.87-47.74,2.1-2,3.29-7.31,3.91-10.18,13.48-63.31-12.46-122.36-68-155.23C301,99.94,304.84,91.33,308.87,85.78Z"/><path class="cls-5" d="M27.76,198.94c-1.24-1.39-1.51-1.17-1.24-3.05,6.73-47,33-91.13,68-121.72A204.72,204.72,0,0,1,432.86,243.58c-4.11,57.86-27.05,97.9-66.93,137.85-18.37,15.36-28.15,21.68-49.12,32.83l-8.17-18.32c11.36-5.75,20.46-10.85,30.73-18.52a184.23,184.23,0,0,0,72.09-120.3A186.18,186.18,0,0,0,377,118.36,185.63,185.63,0,0,0,118,80.7a183,183,0,0,0-72.3,122.43C40.85,201.7,32.87,200.1,27.76,198.94Z"/><path class="cls-6" d="M115.4,232.36c-2.35-46,26.32-86.61,66.65-106.27,2.6,5,5.53,11.82,8,17.06,18.11-8,30.59-7.83,49.81-7.54,9.69,1.71,17.37,3.24,26.4,7.24,46.44,20.52,67.36,71.66,50.6,119.14-10.88,27.81-27.51,42.77-54,55.07l-8.21-24.29c36.58-17.61,53.83-56.56,35.48-94a68.11,68.11,0,0,0-39.57-34.9,67.3,67.3,0,0,0-52,3.62,70.24,70.24,0,0,0-35.17,40.36c-5,15.39-3.85,31,1.21,46.13-7.72,2.84-15.38,5.72-23.22,8.23,4.65,8.55,7.64,15.58,13.77,23.2L139,296.82c-9.75-5.55-20.24-37.71-21.57-49.27C116.84,242.74,116.7,236.63,115.4,232.36Z"/><path class="cls-1" d="M115.4,232.36c-2.35-46,26.32-86.61,66.65-106.27,2.6,5,5.53,11.82,8,17.06-16.13,7.82-28.93,17.7-39.14,32.8-16.42,24.3-21,56.22-11.15,84a10.36,10.36,0,0,0,1.58,2.34c4.65,8.55,7.64,15.58,13.77,23.2L139,296.82c-9.75-5.55-20.24-37.71-21.57-49.27C116.84,242.74,116.7,236.63,115.4,232.36Z"/><path class="cls-7" d="M239.82,135.61a103.43,103.43,0,0,0,2.58-18.68c21,3.07,35.28,8.8,52.74,20.52l8.7-11.1c4.06.08,11.25,8.33,14.22,11.17,35.84,34.18,46.22,84.33,32.49,131C338,303.21,316.85,329.17,283.07,345a129.89,129.89,0,0,1-98.61,4.26c-18.92-6.89-43.45-22.94-55.15-39.49C111.69,291,101.14,258.21,101,232.46l14.4-.1c1.3,4.27,1.44,10.38,2,15.19,1.33,11.56,11.82,43.72,21.57,49.27,18.1,17.58,23.49,26.47,49,36.44a110.34,110.34,0,0,0,85.49-1.75c28.44-12.56,49.06-35.33,60.2-64.15q-8.29-3-16.82-5.37c16.76-47.48-4.16-98.62-50.6-119.14C257.19,138.85,249.51,137.32,239.82,135.61Z"/><path class="cls-4" d="M64.31,228.59C61.55,141.41,134.35,69.94,220,64.92c1.23,8,1.92,15.59,2.68,23.68C132.05,89.91,66,184.36,93.85,270.12c-6.42,2.29-16.29,4.82-23.07,6.78C66.37,258.93,64.14,247,64.31,228.59Z"/><path d="M522.11,318.64V110.56h77.78q23.88,0,40.22,8.94A60.07,60.07,0,0,1,664.83,144q8.37,15.57,8.38,35.4t-8.45,35.47a60.45,60.45,0,0,1-24.93,24.44q-16.49,8.94-40.5,8.94H547.8V217.53h46.65q14.1,0,23.11-4.88a30.59,30.59,0,0,0,13.26-13.55,44,44,0,0,0,4.26-19.69,43.16,43.16,0,0,0-4.26-19.55,29.91,29.91,0,0,0-13.33-13.27q-9.09-4.74-23.32-4.75H559.39v176.8Z"/><path d="M748.48,321.85a63.9,63.9,0,0,1-26.68-5.38,42.93,42.93,0,0,1-18.71-15.85q-6.84-10.47-6.84-25.83,0-13.26,5-21.93A38.11,38.11,0,0,1,714.61,239a68,68,0,0,1,19.06-7.82,150.78,150.78,0,0,1,22.07-3.77q13.54-1.53,22.06-2.65t12.5-3.64c2.66-1.67,4-4.28,4-7.82v-.69a25.91,25.91,0,0,0-3.07-13.06,20.07,20.07,0,0,0-9.15-8.24q-6.07-2.86-15-2.86a40.35,40.35,0,0,0-15.71,2.79,31.08,31.08,0,0,0-10.82,7.26,29.15,29.15,0,0,0-6.15,9.64l-33.65-6.85A54,54,0,0,1,715,178.5a62.1,62.1,0,0,1,23-13.47,90.66,90.66,0,0,1,29-4.47,99.45,99.45,0,0,1,22.28,2.58,62.73,62.73,0,0,1,20.59,8.73,46,46,0,0,1,15.09,16.48q5.71,10.34,5.72,26V318.64H795.82V297.13h-1.4a46.66,46.66,0,0,1-9.56,12.22,45.56,45.56,0,0,1-15.09,9.08A59.9,59.9,0,0,1,748.48,321.85Zm9.35-27q11.31,0,19.48-4.47A33.4,33.4,0,0,0,790,278.63a29.78,29.78,0,0,0,4.54-16V244.21a19.51,19.51,0,0,1-6.07,2.65,95,95,0,0,1-9.5,2.23c-3.49.66-6.94,1.21-10.33,1.68s-6.27.84-8.59,1.12a65.66,65.66,0,0,0-14.66,3.63,23.93,23.93,0,0,0-10.27,7q-3.71,4.55-3.7,11.8a18.13,18.13,0,0,0,3.42,11.24,21.23,21.23,0,0,0,9.36,6.91A36.25,36.25,0,0,0,757.83,294.9Z"/><path d="M941.33,162.51V191H852.66V162.51Zm-66.47-37.14h36.31V274.65q0,8.52,3.63,12.5t11.87,4a46,46,0,0,0,6.63-.63c2.75-.42,5-.81,6.64-1.19l5.72,28.07A73.74,73.74,0,0,1,933.37,320a99.43,99.43,0,0,1-12,.76q-22.49,0-34.49-11.17t-12-31.84Z"/><path d="M1006.41,227.17v91.47H970.1V110.56h35.75v90.49h-3.77q6.55-20.24,19.27-30.37t31.84-10.12q16.05,0,28.14,6.84a46.3,46.3,0,0,1,18.71,20q6.63,13.13,6.64,32v99.29h-36.45V224.93q0-15.63-8.1-24.57t-22.35-8.94a34.77,34.77,0,0,0-17.17,4.19,29.7,29.7,0,0,0-11.87,12.22Q1006.41,215.86,1006.41,227.17Z"/><path d="M1227.33,162.51V191h-98.59V162.51Zm-70,156.13V147.57q0-15.65,6.49-26a41.17,41.17,0,0,1,17.6-15.57,56.39,56.39,0,0,1,24.37-5.23,84.7,84.7,0,0,1,17,1.53,88.14,88.14,0,0,1,10.9,2.8l-7.41,28.21q-2.37-.71-5.79-1.47a37.14,37.14,0,0,0-8-.77q-10.2,0-14.59,5t-4.4,14.24V318.64Z"/><path d="M1274.53,140.45a20.91,20.91,0,0,1-14.87-5.87,19,19,0,0,1,0-28.14,22.17,22.17,0,0,1,29.88,0,18.49,18.49,0,0,1,6.22,14,18.68,18.68,0,0,1-6.22,14.1A21.07,21.07,0,0,1,1274.53,140.45Zm-18.15,178.19V162.51h36.31V318.64Z"/><path d="M1367.54,227.17v91.47h-36.31V162.51h34.35l.56,38.54h-2.93q6.55-20.24,19.27-30.37t31.84-10.12q16.07,0,28.07,6.84a46.38,46.38,0,0,1,18.64,20q6.63,13.13,6.64,32v99.29h-36.31V224.93q0-15.63-8.1-24.57t-22.35-8.94a34.79,34.79,0,0,0-17.17,4.19,29.7,29.7,0,0,0-11.87,12.22Q1367.54,215.86,1367.54,227.17Z"/><path d="M1563.74,321.43a59.55,59.55,0,0,1-33-9.42q-14.6-9.43-23-27.45t-8.38-43.71q0-26,8.59-43.91t23.18-27.17a59.56,59.56,0,0,1,32.46-9.21q14,0,22.84,4.68a44.91,44.91,0,0,1,14.1,11.1,60.5,60.5,0,0,1,7.89,12H1610V110.56h36.31V318.64h-35.61V293.92h-2.24a62.61,62.61,0,0,1-8.17,12,45.09,45.09,0,0,1-14.17,11Q1577.29,321.44,1563.74,321.43Zm9.92-29.88q11.86,0,20.11-6.36t12.57-17.8q4.32-11.44,4.33-26.67t-4.26-26.47q-4.26-11.24-12.57-17.52t-20.18-6.29q-12.29,0-20.53,6.5t-12.43,17.87a74.75,74.75,0,0,0-4.19,25.91,75.91,75.91,0,0,0,4.19,26q4.2,11.52,12.5,18.15T1573.66,291.55Z"/><path d="M1753.67,321.85q-23.61,0-40.57-9.91A66.45,66.45,0,0,1,1687,284q-9.13-18-9.14-42.46,0-24.15,9-42.31a68.53,68.53,0,0,1,25.56-28.42q16.55-10.26,38.89-10.26a80,80,0,0,1,27.16,4.61,63.33,63.33,0,0,1,22.91,14.24A66.1,66.1,0,0,1,1817,203.92q5.65,14.87,5.65,35.4v11.45H1695V226.05h109.63l-17,7.26a61.17,61.17,0,0,0-4-23.11,34,34,0,0,0-12.08-15.57q-8-5.58-20-5.58T1731,194.7a36.4,36.4,0,0,0-12.77,15.08,49,49,0,0,0-4.4,21v17q0,14.8,5,25A35,35,0,0,0,1733,288.2a41.93,41.93,0,0,0,21.09,5.16,43.16,43.16,0,0,0,14.45-2.3,31.25,31.25,0,0,0,11.24-6.84,28.57,28.57,0,0,0,7.12-11.11l33.38,6.85a53.31,53.31,0,0,1-12.85,22,61.78,61.78,0,0,1-22.69,14.66Q1771.12,321.85,1753.67,321.85Z"/><path d="M1853.79,318.64V162.51H1889v26.12h1.67q4.18-13.55,14.66-20.88a40.64,40.64,0,0,1,23.88-7.33q3.08,0,6.85.28c2.51.18,4.65.42,6.42.69v33.38a44.12,44.12,0,0,0-7.26-1.26,90.34,90.34,0,0,0-9.92-.55,37.54,37.54,0,0,0-18.08,4.32,32,32,0,0,0-12.57,11.94,33.55,33.55,0,0,0-4.54,17.53v91.89Z"/></g></g></svg>