<?xml version="1.0" encoding="UTF-8"?>
<!-- Generator: visioncortex VTracer 0.6.4 -->
<svg version="1.1" xmlns="http://www.w3.org/2000/svg" width="970" height="324">
<path d="M0 0 C1.72 0.01 1.72 0.01 3.47 0.02 C11.98 0.19 19.3 1.03 27.19 4.44 C28.12 4.84 29.05 5.24 30.01 5.65 C46.77 13.89 58.95 28.27 65.38 45.66 C67.74 53.22 68.57 60.23 68.62 68.12 C68.64 68.97 68.65 69.81 68.66 70.68 C68.51 81.59 65.27 91.2 60.44 100.88 C59.97 101.83 59.51 102.78 59.03 103.76 C52.63 116.76 45.89 129.59 39.19 142.44 C49.42 142.77 59.65 143.1 70.19 143.44 C70.19 161.92 70.19 180.4 70.19 199.44 C28.61 199.44 -12.97 199.44 -55.81 199.44 C-54.25 194.75 -52.52 190.7 -50.21 186.4 C-49.85 185.73 -49.5 185.06 -49.13 184.37 C-47.97 182.18 -46.8 180 -45.62 177.81 C-44.81 176.28 -43.99 174.74 -43.17 173.2 C-40.72 168.61 -38.27 164.02 -35.81 159.44 C-35.13 158.17 -34.45 156.89 -33.77 155.62 C-31.33 151.06 -28.88 146.49 -26.43 141.93 C-23.13 135.77 -19.83 129.6 -16.56 123.43 C-16.2 122.75 -15.84 122.07 -15.47 121.37 C-13.66 117.96 -11.85 114.54 -10.04 111.13 C-6.72 104.85 -3.36 98.59 0.12 92.39 C0.72 91.31 1.33 90.22 1.95 89.1 C3.07 87.11 4.2 85.12 5.34 83.13 C8.38 77.69 10.51 72.78 10.19 66.44 C8.63 62.77 7.53 61.66 4.19 59.44 C-0.9 58.76 -5.37 58.61 -9.88 61.19 C-12.23 63.92 -13.76 65.99 -13.89 69.66 C-13.35 74.26 -12.71 76.75 -9.81 80.44 C-10.23 84.25 -11.5 87.03 -13.4 90.32 C-13.94 91.25 -14.47 92.19 -15.02 93.14 C-15.59 94.13 -16.16 95.11 -16.75 96.12 C-17.93 98.18 -19.11 100.24 -20.29 102.3 C-20.88 103.32 -21.47 104.35 -22.08 105.41 C-24.63 109.87 -27.13 114.37 -29.62 118.88 C-30.05 119.64 -30.48 120.41 -30.92 121.2 C-31.88 122.95 -32.85 124.69 -33.81 126.44 C-39.21 125.24 -42.65 121.96 -46.81 118.44 C-47.5 117.86 -48.19 117.28 -48.89 116.69 C-59.48 107 -66.91 91.4 -67.99 77.09 C-68.49 57.16 -66.16 39.85 -52.5 24.19 C-50.96 22.58 -49.39 21 -47.81 19.44 C-47.05 18.66 -46.29 17.87 -45.51 17.07 C-32.91 4.82 -17.31 -0.16 0 0 Z " fill="#FF321E" transform="translate(81.8125,72.5625)"/>
<path d="M0 0 C9.9 0 19.8 0 30 0 C30 50.16 30 100.32 30 152 C58.69 149.95 58.69 149.95 80.56 134.5 C92.97 119.55 96.26 101.8 98 83 C108.23 83 118.46 83 129 83 C130.05 111.8 120.15 138.21 100.57 159.42 C97.88 162.13 94.96 164.58 92 167 C92.74 167.64 92.74 167.64 93.5 168.29 C95.69 170.17 97.85 172.08 100 174 C100.57 174.49 101.15 174.99 101.74 175.5 C118.05 190.48 125.95 213.64 129 235 C129 239.95 129 244.9 129 250 C118.77 250 108.54 250 98 250 C97.75 247.32 97.5 244.64 97.25 241.88 C95.27 223.25 88.86 205.41 74.43 192.75 C60.5 181.99 48.22 182.73 30 182 C30 204.44 30 226.88 30 250 C20.1 250 10.2 250 0 250 C0 167.5 0 85 0 0 Z " fill="#FF6758" transform="translate(814,22)"/>
<path d="M0 0 C1.84 0.01 1.84 0.01 3.72 0.03 C27.18 0.47 47.06 9.75 63.81 25.98 C81.97 45.28 88.23 68.11 87.57 93.97 C87.02 106 83.82 116.77 78.19 127.44 C77.71 128.39 77.23 129.34 76.73 130.32 C65.42 151.36 45.5 165 23 171.88 C-2.36 178.22 -26.4 172.56 -48.43 159.94 C-67.82 147.79 -80.37 128.43 -85.81 106.44 C-90.22 83.08 -86.58 58.49 -73.53 38.47 C-59.96 19.1 -40.44 6.15 -17.32 1.04 C-11.54 0.05 -5.85 -0.05 0 0 Z M-42.81 49.44 C-54.85 63.49 -57.05 79.65 -55.81 97.44 C-53.2 112.41 -44.11 125.21 -32.06 134.25 C-18.22 143.43 -2.18 145.56 13.97 142.79 C29.56 138.36 41.33 129.06 49.68 115.29 C56.59 102.2 58.76 86.6 55.32 72.11 C50.12 55.55 40.34 43.73 25.19 35.44 C1.18 24.18 -24.73 30.68 -42.81 49.44 Z " fill="#FF6758" transform="translate(529.8125,101.5625)"/>
<path d="M0 0 C2.47 1.91 4.79 3.91 7.09 6.02 C7.83 6.67 8.58 7.32 9.34 8 C19.12 17.08 27.13 29.25 31.09 42.02 C31.09 43.01 31.09 44 31.09 45.02 C26.38 45.29 21.67 45.49 16.95 45.62 C15.35 45.68 13.74 45.75 12.14 45.85 C6.94 46.15 2.18 46.23 -2.91 45.02 C-6.39 41.78 -7.96 38.28 -9.91 34.02 C-17.21 24.88 -28.59 18.2 -40.3 16.72 C-42.76 16.58 -45.19 16.55 -47.66 16.58 C-48.53 16.59 -49.41 16.6 -50.3 16.6 C-65.43 16.99 -77.59 23.16 -88.52 33.41 C-100.38 46.34 -103.86 60.94 -103.29 77.98 C-102.39 93.16 -94.87 105.77 -83.91 116.02 C-69.7 126.88 -55.35 129.29 -37.91 128.02 C-24.78 125.67 -14.85 117.4 -6.91 107.02 C-5.59 104.71 -4.27 102.4 -2.91 100.02 C8.31 100.02 19.53 100.02 31.09 100.02 C28.19 117.43 14.89 134.37 0.77 144.46 C-14.21 154.67 -30.05 159.62 -48.22 159.46 C-49.4 159.45 -50.58 159.44 -51.8 159.43 C-75.28 158.97 -94.93 149.42 -111.72 133.33 C-130.12 114.08 -135.72 91.77 -135.28 65.88 C-134.38 42.77 -123.46 23.1 -107.07 7.28 C-77.65 -18.71 -32.56 -22.16 0 0 Z " fill="#FF6758" transform="translate(767.91015625,115.98046875)"/>
<path d="M0 0 C2.47 1.91 4.79 3.91 7.09 6.02 C7.83 6.67 8.58 7.32 9.34 8 C19.12 17.08 27.13 29.25 31.09 42.02 C31.09 43.01 31.09 44 31.09 45.02 C26.38 45.29 21.67 45.49 16.95 45.62 C15.35 45.68 13.74 45.75 12.14 45.85 C6.94 46.15 2.18 46.23 -2.91 45.02 C-6.39 41.78 -7.96 38.28 -9.91 34.02 C-17.21 24.88 -28.59 18.2 -40.3 16.72 C-42.76 16.58 -45.19 16.55 -47.66 16.58 C-48.53 16.59 -49.41 16.6 -50.3 16.6 C-65.43 16.99 -77.59 23.16 -88.52 33.41 C-100.38 46.34 -103.86 60.94 -103.29 77.98 C-102.39 93.16 -94.87 105.77 -83.91 116.02 C-69.7 126.88 -55.35 129.29 -37.91 128.02 C-24.78 125.67 -14.85 117.4 -6.91 107.02 C-5.59 104.71 -4.27 102.4 -2.91 100.02 C8.31 100.02 19.53 100.02 31.09 100.02 C28.19 117.43 14.89 134.37 0.77 144.46 C-14.21 154.67 -30.05 159.62 -48.22 159.46 C-49.4 159.45 -50.58 159.44 -51.8 159.43 C-75.28 158.97 -94.93 149.42 -111.72 133.33 C-130.12 114.08 -135.72 91.77 -135.28 65.88 C-134.38 42.77 -123.46 23.1 -107.07 7.28 C-77.65 -18.71 -32.56 -22.16 0 0 Z " fill="#FF6758" transform="translate(307.91015625,115.98046875)"/>
<path d="M0 0 C9.9 0 19.8 0 30 0 C30.01 2.06 30.02 4.12 30.02 6.25 C30.1 25.7 30.19 45.15 30.29 64.6 C30.34 74.6 30.38 84.59 30.42 94.59 C30.45 103.31 30.49 112.03 30.54 120.75 C30.57 125.37 30.59 129.98 30.6 134.59 C30.62 138.94 30.64 143.3 30.67 147.65 C30.68 149.23 30.68 150.82 30.68 152.41 C30.71 171.4 32.59 188.75 45 204 C45.5 204.62 46 205.25 46.51 205.89 C57.06 217.68 71.9 221.49 87 223 C87 232.9 87 242.8 87 253 C63.46 253 44.78 246.39 27 231 C26.33 230.43 25.65 229.86 24.96 229.27 C11.53 216.88 2.5 197.87 0 180 C-0.09 177.47 -0.13 174.97 -0.12 172.44 C-0.12 171.7 -0.12 170.96 -0.12 170.2 C-0.12 167.73 -0.12 165.26 -0.11 162.8 C-0.11 161.02 -0.11 159.25 -0.11 157.47 C-0.11 152.66 -0.11 147.85 -0.1 143.04 C-0.1 138.02 -0.09 132.99 -0.09 127.96 C-0.09 118.44 -0.08 108.92 -0.07 99.4 C-0.06 88.56 -0.06 77.72 -0.05 66.88 C-0.04 44.59 -0.02 22.29 0 0 Z " fill="#FF6758" transform="translate(353,22)"/>
<path d="M0 0 C0.7 0.01 1.4 0.01 2.12 0.02 C2.83 0.01 3.53 0.01 4.25 0 C6.12 0.27 6.12 0.27 8.12 2.27 C8.38 4.47 8.38 4.47 8.38 7.23 C8.39 8.27 8.4 9.3 8.4 10.37 C8.4 11.49 8.39 12.61 8.39 13.77 C8.39 15.49 8.39 15.49 8.4 17.24 C8.4 19.67 8.39 22.1 8.39 24.52 C8.38 28.25 8.39 31.98 8.4 35.7 C8.4 38.06 8.39 40.41 8.39 42.77 C8.39 43.89 8.4 45.01 8.4 46.16 C8.4 47.2 8.39 48.23 8.38 49.3 C8.38 50.21 8.38 51.12 8.38 52.06 C8.12 54.27 8.12 54.27 6.12 56.27 C3.42 56.47 0.83 56.55 -1.88 56.53 C-2.67 56.53 -3.46 56.54 -4.27 56.54 C-5.95 56.54 -7.62 56.53 -9.3 56.53 C-11.86 56.52 -14.43 56.53 -17 56.54 C-18.63 56.54 -20.25 56.54 -21.88 56.53 C-23.03 56.54 -23.03 56.54 -24.21 56.54 C-29.65 56.5 -29.65 56.5 -31.88 54.27 C-32.12 50.77 -32.12 50.77 -31.88 47.27 C-29.88 45.27 -29.88 45.27 -27.26 45.04 C-26.18 45.05 -25.1 45.06 -23.99 45.07 C-22.24 45.08 -22.24 45.08 -20.46 45.09 C-18.62 45.11 -18.62 45.11 -16.75 45.14 C-15.52 45.15 -14.29 45.16 -13.02 45.17 C-9.97 45.19 -6.92 45.22 -3.88 45.27 C-3.89 43.97 -3.9 42.68 -3.91 41.35 C-3.94 36.57 -3.97 31.79 -3.98 27 C-3.99 24.93 -4.01 22.86 -4.03 20.79 C-4.05 17.81 -4.06 14.84 -4.07 11.87 C-4.08 10.94 -4.09 10.01 -4.1 9.05 C-4.1 8.19 -4.1 7.33 -4.1 6.44 C-4.11 5.68 -4.11 4.92 -4.12 4.14 C-3.77 1.42 -2.71 0.38 0 0 Z " fill="#FF6758" transform="translate(528.875,148.734375)"/>
</svg>
