<?xml version="1.0" encoding="utf-8" ?><svg xmlns="http://www.w3.org/2000/svg" xmlns:xlink="http://www.w3.org/1999/xlink" width="945" height="593" viewBox="0 0 945 593"><path fill="#545454" d="M174.534 142.205C176.355 141.102 183.507 138.337 185.785 137.402L208.271 128.127L259.832 106.663C267.199 103.587 275.692 99.6937 283.321 97.3097C284.21 97.0317 287.535 98.147 288.447 98.5166C301.651 103.864 314.858 109.282 328.042 114.673L387.842 138.908L416.438 150.577C421.074 152.481 430.792 155.478 433.033 159.885C436.75 167.194 452.516 187.966 454.313 194.528C455.193 197.742 453.81 222.29 452.765 224.7C447.999 235.699 437.731 264.999 431.604 274.243L430.672 276.179C426.396 275.487 418.311 271.948 413.732 270.408C401.208 266.196 389.448 261.43 377.246 256.456L284.151 218.722C272.509 214.066 258.331 207.585 246.83 203.606C245.999 207.287 241.406 216.305 239.586 220.222L225.269 251.18L216.051 271.199C214.979 273.535 212.825 278.718 211.579 280.639C209.946 285.221 203.691 299.09 201.069 303.385C199.566 306.868 190.151 325.827 190.101 327.886C203.594 333.056 217.91 339.069 231.297 344.633C235.967 342.823 251.547 336.51 255.532 335.718C250.92 332.426 220.006 320.284 213.407 318.097C213.441 311.235 213.261 293.329 214.462 287.185C216.794 285.06 293.189 251.046 300.301 248.521C301.871 249.386 300.95 250.494 302.441 251.395C311.491 256.864 370.832 277.268 374.449 281.972C374.518 289.287 372.886 304.605 372.263 312.037C372.139 313.521 364.842 328.956 363.648 331.526L346.203 369.105L335.138 393.172C334.105 395.425 331.07 402.497 330.048 404.148C328.372 407.666 326.85 411.073 324.723 414.344C304.512 423.881 278.986 433.485 258.136 442.212L232.114 452.979C230.434 453.677 221.842 457.388 220.641 457.677C219.006 458.63 218.444 458.821 216.721 459.409C213.747 459.033 193.104 450.281 189.162 448.663L133.584 425.994L91.8315 409.047C84.3462 406.016 75.6279 402.932 68.6117 399.306C67.6538 389.743 69.2039 378.509 69.2806 369.14C69.8534 366.574 74.4382 357.137 75.8678 354.092C79.7718 345.848 83.6157 337.575 87.3993 329.275L141.667 212.341L163.386 165.82C165.832 160.523 171.788 146.486 174.534 142.205Z"/><path fill="#020202" d="M248.674 172.531L342.168 210.536C373.549 223.322 400.791 234.532 432.919 245.629C432.58 251.203 430.989 270.038 431.604 274.243L430.672 276.179C426.396 275.487 418.311 271.948 413.732 270.408C401.208 266.196 389.448 261.43 377.246 256.456L284.151 218.722C272.509 214.066 258.331 207.585 246.83 203.606C245.999 207.287 241.406 216.305 239.586 220.222L225.269 251.18L216.051 271.199C214.979 273.535 212.825 278.718 211.579 280.639C211.918 277.072 217.219 262.777 218.631 258.62C227.044 233.862 235.836 209.184 244.417 184.477C245.736 180.717 247.202 176.169 248.674 172.531Z"/><path fill="#020202" d="M69.2806 369.14C118.668 388.472 168.072 409.614 217.362 429.357C218.315 431.696 215.975 454.908 216.923 457.451L220.641 457.677C219.006 458.63 218.444 458.821 216.721 459.409C213.747 459.033 193.104 450.281 189.162 448.663L133.584 425.994L91.8315 409.047C84.3462 406.016 75.6279 402.932 68.6117 399.306C67.6538 389.743 69.2039 378.509 69.2806 369.14Z"/><path fill="#020202" d="M217.362 429.357C221.724 427.173 228.671 424.476 233.277 422.57L261.323 411.027L294.303 397.475C297.403 396.168 311.221 389.571 313.508 389.903C311.43 391.175 308.704 391.609 307.229 392.727C314.305 400.892 307.002 418.587 307.832 420.104C309.924 419.706 322.57 414.75 323.932 413.154C325.741 411.033 326.914 406.322 330.048 404.148C328.372 407.666 326.85 411.073 324.723 414.344C304.512 423.881 278.986 433.485 258.136 442.212L232.114 452.979C230.434 453.677 221.842 457.388 220.641 457.677L216.923 457.451C215.975 454.908 218.315 431.696 217.362 429.357Z"/><path fill="#020202" d="M213.407 318.097C213.441 311.235 213.261 293.329 214.462 287.185C221.011 290.061 228.65 292.861 235.359 295.577L274.768 311.658C280.569 314.021 290.521 317.707 295.852 320.272C282.734 325.732 268.817 330.474 255.532 335.718C250.92 332.426 220.006 320.284 213.407 318.097Z"/><path fill="#474747" d="M178.56 323.524C184.374 311.743 189.898 299.26 195.44 287.302L224.23 225.326C230.137 212.592 236.064 199.642 242.142 186.981C242.659 185.906 243.447 185.162 244.417 184.477C235.836 209.184 227.044 233.862 218.631 258.62C217.219 262.777 211.918 277.072 211.579 280.639C209.946 285.221 203.691 299.09 201.069 303.385C199.566 306.868 190.151 325.827 190.101 327.886C187.93 327.445 185.018 326.002 182.921 325.065L178.56 323.524Z"/><path fill="#020202" d="M193.034 296.448C195.38 295.474 198.613 294.5 201.08 293.678C200.916 296.789 200.493 300.377 201.069 303.385C199.566 306.868 190.151 325.827 190.101 327.886C187.93 327.445 185.018 326.002 182.921 325.065C186.593 316.295 189.146 305.408 193.034 296.448Z"/><path fill="#545454" d="M503.379 186.647C509.596 177.704 518.058 169.422 524.674 160.67C526.756 157.917 530.584 152.706 533.682 151.729C542.754 148.872 552.145 146.463 561.298 143.915L650.561 119.257L671.677 113.386C674.716 112.53 680.309 110.767 683.223 110.232C683.722 110.141 684.221 110.059 684.723 109.986C688.997 111.627 695.1 115.271 699.356 117.638L723.847 131.373C745.047 143.302 767.064 155.013 788.031 167.197C790.44 171.766 793.249 181.215 794.954 186.464L805.927 220.149L850.046 353.484L860.528 384.789C862.092 389.425 866.307 400.952 866.633 404.963C866.096 412.085 865.337 428.917 864.111 435.134L759.628 464.089C743.751 468.488 726.922 472.76 711.336 477.683C690.231 466.593 667.442 453.222 646.537 441.537L624.3 429.093C619.217 426.3 612.781 423.066 608.111 419.818C604.264 410.642 601.749 401.686 598.633 392.29C593.142 376.117 587.817 359.888 582.657 343.606C577.484 327.507 570.302 314.567 573.182 297.764C573.967 293.181 572.619 286.081 573.598 281.926C590.571 277.35 607.518 272.681 624.439 267.919C632.436 265.713 641.046 263.724 648.805 260.923C649.814 260.559 650.372 259.554 650.939 258.655C658.707 262.751 729.245 303.681 731.874 306.749C732.024 308.524 731.431 310.613 731.441 312.683C731.48 320.959 730.327 329.289 729.988 337.442L703.136 344.835C698.396 346.111 689.799 348.133 685.569 350.105C691.545 352.495 702.265 358.538 708.38 361.785C722.707 357.538 737.841 353.62 752.301 349.611C752.284 349.014 749.721 342.28 749.303 340.991C740.036 312.397 730.573 283.846 721.027 255.337C717.12 243.67 713.628 231.654 709.241 220.184C691.421 225.465 522.644 272.519 518.751 270.878C515.879 266.073 505.122 224.632 502.687 217.125C502.142 215.445 503.182 205.191 503.305 202.604C503.554 197.354 503.452 191.965 503.379 186.647Z"/><path fill="#020202" d="M573.598 281.926C584.362 316.911 597.276 354.598 609.026 389.469L680.362 429.338C690.758 435.142 702.343 441.311 712.474 447.425L816.381 418.562L848.72 409.553C853.985 408.101 861.49 405.762 866.633 404.963C866.096 412.085 865.337 428.917 864.111 435.134L759.628 464.089C743.751 468.488 726.922 472.76 711.336 477.683C690.231 466.593 667.442 453.222 646.537 441.537L624.3 429.093C619.217 426.3 612.781 423.066 608.111 419.818C604.264 410.642 601.749 401.686 598.633 392.29C593.142 376.117 587.817 359.888 582.657 343.606C577.484 327.507 570.302 314.567 573.182 297.764C573.967 293.181 572.619 286.081 573.598 281.926Z"/><path fill="#020202" d="M503.379 186.647C509.079 204.264 513.643 223.111 519.514 240.369C583.73 224.62 647.589 207.456 711.047 188.888L747.377 298.72C752.597 314.471 757.767 331.091 763.23 346.689C760.917 347.4 754.476 349.485 752.301 349.611C752.284 349.014 749.721 342.28 749.303 340.991C740.036 312.397 730.573 283.846 721.027 255.337C717.12 243.67 713.628 231.654 709.241 220.184C691.421 225.465 522.644 272.519 518.751 270.878C515.879 266.073 505.122 224.632 502.687 217.125C502.142 215.445 503.182 205.191 503.305 202.604C503.554 197.354 503.452 191.965 503.379 186.647Z"/><path fill="#020202" d="M731.874 306.749C732.024 308.524 731.431 310.613 731.441 312.683C731.48 320.959 730.327 329.289 729.988 337.442L703.136 344.835C698.396 346.111 689.799 348.133 685.569 350.105C682.429 348.848 675.73 345.123 672.411 343.398C663.886 338.917 655.318 334.52 646.708 330.205C674.033 322.121 704.293 314.071 731.874 306.749Z"/><path fill="#9C0000" d="M403.745 313.778C406.126 312.207 413.293 306.975 415.381 306.669C420.929 305.855 429.029 306.191 434.681 306.211L468.559 306.312C469.822 315.294 471.298 325.909 471.989 334.902L471.415 335.737C470.777 336.378 469.567 337.517 469.033 338.162C469.489 342.415 470.221 347.736 470.495 351.912C466.436 356.022 454.082 367.452 449.567 370.879C443.489 375.168 435.219 381.491 428.51 384.573C427.816 384.892 425.865 384.805 425.012 384.758C425.415 387.486 425.779 389.599 425.782 392.382C420.017 396.303 411.551 402.138 405.678 405.643C398.147 405.685 386.248 405.309 379.202 405.891L378.632 405.458C376.813 394.782 375.982 380.71 374.309 369.623C373.484 364.16 371.093 345.309 371.293 340.622C373.796 338.023 374.653 337.39 377.569 335.371C385.399 327.152 394.187 319.902 403.745 313.778ZM421.05 348.853C422.385 348.614 422.645 348.601 423.857 348.04C424.703 346.336 424.308 343.994 424.335 341.724L419.625 341.867C420.063 344.294 420.476 346.455 421.05 348.853Z"/><path fill="#300403" d="M377.569 335.371L378.616 335.714C381.104 334.812 388.751 329.128 391.126 327.42C394.208 347.986 396.573 371.314 398.97 392.135C394.161 395.206 389.442 398.414 384.816 401.755C383.902 402.408 379.646 405.668 379.202 405.891L378.632 405.458C376.813 394.782 375.982 380.71 374.309 369.623C373.484 364.16 371.093 345.309 371.293 340.622C373.796 338.023 374.653 337.39 377.569 335.371Z"/><path fill="#3A1817" d="M398.97 392.135C407.777 392.087 417.03 391.899 425.782 392.382C420.017 396.303 411.551 402.138 405.678 405.643C398.147 405.685 386.248 405.309 379.202 405.891C379.646 405.668 383.902 402.408 384.816 401.755C389.442 398.414 394.161 395.206 398.97 392.135Z"/><path fill="#3A1817" d="M423.027 370.482C430.386 370.431 442.537 370.079 449.567 370.879C443.489 375.168 435.219 381.491 428.51 384.573C427.816 384.892 425.865 384.805 425.012 384.758C424.27 381.501 423.508 374.088 423.027 370.482Z"/><path fill="#6A2F2F" d="M403.745 313.778C403.916 315.201 404.227 315.473 403.208 316.558C399.613 320.388 395.133 324.035 391.126 327.42C388.751 329.128 381.104 334.812 378.616 335.714L377.569 335.371C385.399 327.152 394.187 319.902 403.745 313.778Z"/><path fill="#300403" d="M417.898 327.404C425.751 327.376 436.008 327.087 443.636 327.672L444.583 327.977C445.489 331.199 446.807 344.861 447.292 348.901C443.625 348.915 423.762 349.539 421.05 348.853C422.385 348.614 422.645 348.601 423.857 348.04C424.703 346.336 424.308 343.994 424.335 341.724L419.625 341.867C419.139 337.035 418.563 332.213 417.898 327.404Z"/><path fill="#3A1817" d="M417.898 327.404C425.751 327.376 436.008 327.087 443.636 327.672C442.261 329.402 427.76 338.815 424.335 341.724L419.625 341.867C419.139 337.035 418.563 332.213 417.898 327.404Z"/><path fill="#9C0000" d="M509.838 302.273C523.925 302.205 543.929 301.634 557.544 302.394C551.188 308.835 542.637 319.126 536.341 324.573L521.216 334.955C534.416 335.479 548.323 334.919 561.656 335.197C562.736 341.887 565.565 361.777 565.788 368.154C560.498 373.753 549.61 386.101 544.336 390.569C537.948 394.895 531.211 399.556 524.682 403.65C510.873 403.829 490.256 404.218 476.651 403.623C478.915 401.189 481.272 398.559 483.642 396.251C488.086 391.972 492.431 386.655 496.573 382.792C500.014 379.584 509.179 373.96 513.569 371.166C510.201 370.37 478.077 370.466 473.923 370.97L472.819 370.564C472.224 369.081 470.901 354.808 470.495 351.912C470.221 347.736 469.489 342.415 469.033 338.162C469.567 337.517 470.777 336.378 471.415 335.737L471.989 334.902C479.904 323.789 492.774 313.382 504.113 305.971L509.838 302.273Z"/><path fill="#300403" d="M489.352 323.85C490.6 334.151 491.772 346.814 493.419 356.868C485.26 362.136 481.298 365.139 473.923 370.97L472.819 370.564C472.224 369.081 470.901 354.808 470.495 351.912C470.221 347.736 469.489 342.415 469.033 338.162C469.567 337.517 470.777 336.378 471.415 335.737C474.643 334.654 485.979 326.253 489.352 323.85Z"/><path fill="#3A1817" d="M497.3 390.035L525.198 389.995C531.169 389.992 538.517 389.773 544.336 390.569C537.948 394.895 531.211 399.556 524.682 403.65C510.873 403.829 490.256 404.218 476.651 403.623C478.915 401.189 481.272 398.559 483.642 396.251C483.45 397.23 483.344 397.54 483.437 398.563C485.279 398.62 495.1 391.535 497.3 390.035Z"/><path fill="#3A1817" d="M493.419 356.868C507.897 356.726 525.762 356.33 540.026 356.964C535.695 360.52 529.321 364.587 524.543 367.823L518.713 367.927C517.52 368.801 515.097 370.465 514.068 371.361L513.569 371.166C510.201 370.37 478.077 370.466 473.923 370.97C481.298 365.139 485.26 362.136 493.419 356.868Z"/><path fill="#3A1817" d="M512.959 324.031C520.351 323.989 529.171 323.747 536.341 324.573L521.216 334.955L514.227 334.973C513.918 331.237 513.455 327.746 512.959 324.031Z"/><path fill="#6A2F2F" d="M471.989 334.902C479.904 323.789 492.774 313.382 504.113 305.971C504.073 306.581 503.91 308.293 503.501 308.731C499.825 312.672 493.543 320.799 489.352 323.85C485.979 326.253 474.643 334.654 471.415 335.737L471.989 334.902Z"/><path fill="#6A2F2F" d="M513.569 371.166L514.068 371.361C512.769 374.311 500.119 387.492 497.3 390.035C495.1 391.535 485.279 398.62 483.437 398.563C483.344 397.54 483.45 397.23 483.642 396.251C488.086 391.972 492.431 386.655 496.573 382.792C500.014 379.584 509.179 373.96 513.569 371.166Z"/><path fill="#300403" d="M540.026 356.964C541.683 358.474 541.736 365.245 541.938 367.891C536.178 367.87 530.292 367.907 524.543 367.823C529.321 364.587 535.695 360.52 540.026 356.964Z"/></svg>