<svg xmlns="http://www.w3.org/2000/svg" viewBox="0 0 749.96 550.07"><defs><style>.cls-1{fill:#980000;}</style></defs><g id="Calque_2" data-name="Calque 2"><g id="Calque_1-2" data-name="Calque 1"><path class="cls-1" d="M652,550.07c-16.63,0-33.46-4.91-50.3-14.7-19.88-11.55-39.76-29.9-60.79-56.11-33.46-41.69-72.22-54.4-165.91-54.4-94,0-134.72,13.22-167.71,54.38-21.59,26.86-40.71,44.69-60.18,56.15-26.25,15.44-52.78,18.69-78.87,9.66S9.6,510.06,1.77,437.5c-5-46.55.68-108.5,16.5-179.16S53,133.77,76.14,93.65c26.53-46.06,59.92-75.3,99.24-86.91l.35-.1A180.52,180.52,0,0,1,225,0c21.37,0,40,5.23,59.72,10.75C308.58,17.43,335.61,25,375,25s66.34-7.56,90.17-14.24C484.86,5.23,503.49,0,524.91,0a168.05,168.05,0,0,1,47.8,6.72c74.1,21.9,124,101.87,157.14,251.68,16.77,75.75,22.95,134.21,18.92,178.72-2.45,27.05-8.56,48.76-18.69,66.37-11.76,20.44-28.6,34.52-50,41.84A86.56,86.56,0,0,1,652,550.07ZM375,374.86c55.12,0,93.23,4.6,123.59,14.93,32.48,11,58.32,29.52,81.31,58.17,49.6,61.79,75.51,53,84,50.05C705.11,483.93,711,404.81,681,269.2h0C652.63,140.81,612.59,70.65,558.62,54.7A117.1,117.1,0,0,0,525.08,50H525c-14.56,0-28.59,3.93-46.34,8.91C453,66.08,421.17,75,375,75s-78.1-8.93-103.71-16.1C253.5,53.93,239.49,50,225,50h-.13a130.39,130.39,0,0,0-35.47,4.75c-26.89,8-49.75,28.89-69.9,63.86-20.55,35.68-37.7,85-52.4,150.65C52.43,334.64,47,391,51.48,432.14c2.77,25.68,10.76,57.92,33.09,65.66,15.87,5.5,39.75,4.8,83.69-49.85,22.89-28.58,49.05-47.08,82.29-58.2C281.31,379.45,319.68,374.86,375,374.86Z"/><circle class="cls-1" cx="431.21" cy="225" r="31.25"/><path class="cls-1" d="M500,325a31.25,31.25,0,1,1,31.25-31.25v.08A31.24,31.24,0,0,1,500,325Z"/><circle class="cls-1" cx="499.96" cy="156.25" r="31.25"/><circle class="cls-1" cx="568.71" cy="225" r="31.25"/><path class="cls-1" d="M225,325a25,25,0,0,1-25-25V150a25,25,0,0,1,50,0V300A25,25,0,0,1,225,325Z"/><path class="cls-1" d="M300,250H150a25,25,0,0,1,0-50H300a25,25,0,1,1,0,50Z"/></g></g></svg>