<svg xmlns="http://www.w3.org/2000/svg" viewBox="0 0 188.89 183.82"><defs><style>.cls-1{fill:#dd3a39;}</style></defs><g id="Calque_2" data-name="Calque 2"><g id="Calque_1-2" data-name="Calque 1"><path class="cls-1" d="M94.44,70.37a525.21,525.21,0,0,0,27-67.89c8-.72,12-1.22,20-2.48q14.21,89.73,28.42,179.45-18.18,2.88-36.56,4.37-4.15-65.55-8.88-131.07l-.82-.46a589.35,589.35,0,0,1-26.27,61c-2.32,0-3.49,0-5.81,0a590.28,590.28,0,0,1-26.27-61l-.82.46q-4.73,65.52-8.88,131.07Q37.21,182.34,19,179.45,33.22,89.72,47.43,0c8,1.26,12,1.76,20,2.48A526.6,526.6,0,0,0,94.44,70.37Z"/><path class="cls-1" d="M188.89,139H0l5-18h179Q186.41,130,188.89,139Z"/></g></g></svg>