<?xml version="1.0" encoding="utf-8" ?><svg xmlns="http://www.w3.org/2000/svg" xmlns:xlink="http://www.w3.org/1999/xlink" width="683" height="365" viewBox="0 0 683 365"><path fill="#FEFEFE" d="M162.825 226.909L163.789 227.694C169.524 232.323 180.693 238.925 187.33 242.127C243.051 269.006 314.647 270.955 374.115 256.839C384.933 254.272 394.6 250.668 404.973 246.881C408.299 245.666 417.707 239.974 420.235 239.698L420.261 240.107C418.336 242.247 409.516 248.657 406.961 250.395C378.416 269.812 341.068 281.257 306.833 285.606C245.501 293.398 169.936 283.608 119.17 245.648C102.302 233.035 86.9205 213.535 84.241 192.267C81.866 174.515 87.7152 156.05 99.2068 142.239C138.136 95.45 209.323 80.7614 267.128 80.739C320.541 80.7183 374.912 92.8691 417.376 125.831L418.045 127.137L417.801 127.569L417.141 127.732C373.458 105.034 310.361 99.9197 262.123 105.808C232.759 109.392 199.544 118.033 174.404 134.029C171.46 135.902 165.355 139.713 163.39 142.245C167.414 139.72 171.846 137.915 176.489 136.911C192.88 133.261 212.433 138.11 222.081 152.626C225.698 158.069 226.63 162.528 227.989 168.787C221.252 169.054 214.379 168.574 207.539 169.099C203.644 153.199 186.574 149.274 174.002 157.31C160.398 166.005 159.355 193.429 168.03 205.901C171.513 210.894 176.839 214.294 182.833 215.35C197.491 217.968 207.351 211.427 210.029 196.458C203.074 196.369 196.119 196.386 189.164 196.508C188.792 192.741 189.035 184.692 189.067 180.69C192.636 180.479 198.281 180.737 202.1 180.749C211.235 180.84 220.371 180.758 229.503 180.504C229.177 196.961 229.334 214.42 229.487 230.909C224.867 230.874 220.247 230.947 215.631 231.13C214.939 227.686 214.324 224.227 213.787 220.755C210.474 225.056 204.332 229.606 199.144 231.213C186.391 235.164 174.362 232.527 162.825 226.909Z"/><path fill="#FEFEFE" d="M242.249 138.273C245.77 138.826 259.486 138.51 263.465 138.346C262.955 144.321 263.145 152.094 263.144 158.176L263.165 193.755C263.175 199.935 263.418 207.552 263.082 213.562C276.061 214.101 296.471 214.182 309.398 213.507C309.409 219.552 309.27 224.681 309.492 230.786C308.216 231.578 249.709 230.793 242.154 231.396C241.966 227.165 242.169 221.145 242.173 216.809L242.19 186.703L242.176 156.32C242.166 150.555 242.006 143.954 242.249 138.273Z"/><path fill="#FEFEFE" d="M332.034 174.314C335.678 174.039 338.931 174.097 342.131 175.869C353.943 182.339 353.512 210.754 339.11 214.079C333.069 215.474 326.994 214.224 325.38 207.503L325.341 207.334L324.966 207.217C324.535 209.077 324.747 219.486 324.756 221.953L324.912 230.633C321.458 230.607 318.003 230.64 314.55 230.731C314.192 217.2 314.634 203.494 314.467 189.947C314.406 185.004 314.447 179.886 314.62 174.948C317.369 174.781 321.126 174.878 323.951 174.867C324.393 177.578 324.434 180.199 324.535 182.937C325.73 178.685 327.144 174.993 332.034 174.314ZM325.698 187.226C324.18 195.081 322.806 207.537 335.146 204.617C343.001 198.853 341.842 182.045 329.515 183.884C327.52 185.03 327.174 185.475 325.698 187.226Z"/><path fill="#FEFEFE" d="M411.88 174.282C416.048 173.849 420.639 174.333 424.3 176.642C433.359 182.355 434.301 198.799 428.966 207.299C426.125 211.825 422.255 213.425 417.273 214.477C412.341 214.702 406.851 214.369 403.109 210.896C392.368 200.929 394.596 175.64 411.88 174.282ZM417.007 204.871C419.367 203.259 421.07 200.567 421.436 197.766C422.437 190.106 420.939 182.741 411.865 183.905C410.85 184.476 410.015 184.994 409.364 185.984C406.013 191.079 405.602 202.75 412.792 204.856C413.648 205.107 416.033 204.939 417.007 204.871Z"/><path fill="#FEFEFE" d="M495.105 174.286C499.642 173.671 505.18 174.563 508.797 177.422C512.537 180.379 514.471 184.929 514.947 189.591C515.167 191.743 515.823 196.571 514.486 198.285C509.51 198.811 496.035 198.512 490.203 198.54C495.206 206.387 499.864 205.437 508.359 204.418C509.577 204.271 511.252 203.884 512.421 204.154C512.676 207.368 512.981 210.578 513.336 213.782C504.626 214.615 493.797 216.127 486.319 210.214C477.946 203.594 477.566 187.755 484.094 179.756C486.891 176.329 490.703 174.667 495.105 174.286ZM489.601 191.491C492.722 191.234 496.171 191.371 499.327 191.427L505.201 191.414C504.494 186.148 502.616 182.686 496.57 183.187C491.718 184.462 490.893 186.923 489.601 191.491Z"/><path fill="#FEFEFE" d="M579.934 162.986C580.179 163.001 580.27 163.143 580.539 163.336C580.872 165.245 580.669 172.768 580.544 174.866C586.353 174.855 592.162 174.876 597.971 174.929C597.966 178.055 598.003 181.182 598.083 184.308C592.496 184.403 586.294 184.192 580.562 184.235C581.155 201.137 577.338 206.924 598.318 204.38C598.67 206.441 599.688 212.175 598.765 213.854L597.872 214.009C572.302 217.708 568.588 206.942 570.498 184.185C567.521 184.173 564.28 184.371 561.284 184.498C561.059 181.21 561.137 178.067 561.184 174.781C563.81 174.968 567.785 174.845 570.511 174.842C570.324 170.949 570.294 167.049 570.421 163.153C573.593 163.175 576.765 163.12 579.934 162.986Z"/><path fill="#FEFEFE" d="M379.38 174.291C391.077 172.716 393.002 181.125 394.028 190.435L393.813 190.417C390.204 190.146 387.731 190.274 384.129 190.419C383.771 188.829 383.273 186.833 382.448 185.464C381.172 183.316 376.675 183.031 374.913 184.695C369.959 189.374 371.829 199.291 371.184 205.276C374.158 205.095 377.464 205.121 380.469 205.085C380.574 208.238 380.653 210.764 380.466 213.901C376.294 213.732 372.117 213.677 367.941 213.738C362.925 213.748 357.909 213.815 352.894 213.938C352.804 211.116 352.885 207.867 352.887 205.011C355.959 205.185 358.189 205.228 361.262 205.136C361.062 200.978 360.788 187.229 361.199 183.497C359.109 183.572 356.673 183.505 354.553 183.493C354.426 180.874 354.491 177.659 354.472 174.994C359.479 174.709 364.685 175.119 369.899 174.78C370.328 178.598 370.469 181.613 371.883 185.192C372.637 180.07 373.394 175.422 379.38 174.291Z"/><path fill="#FEFEFE" d="M466.41 174.668C466.912 174.541 466.74 174.611 467.355 174.771C467.568 175.314 467.651 183.336 467.518 184.803C466.457 196.548 470.709 214.99 463.085 224.612C458.396 230.53 447.312 230.709 440.594 231.498C440.447 229.459 439.693 222.721 440.61 221.415L441.465 221.299C456.256 220.834 457.178 219.42 457.279 204.51C457.32 198.402 456.726 190.018 457.232 184.239C452.433 184.193 448.506 184.269 443.72 184.477C443.527 181.829 443.521 177.47 443.659 174.885C451.01 174.575 458.862 175.272 466.41 174.668Z"/><path fill="#FEFEFE" d="M539.076 174.285C548.474 173.277 553.292 175.557 558.975 182.838C556.548 184.769 554.162 186.749 551.817 188.779C548.469 185.542 545.485 183.294 540.535 183.653C531.415 184.316 529.256 197.6 535.958 202.576C540.517 205.961 547.333 205.191 552.648 204.381C553.1 204.392 554.894 203.981 555.444 203.866C555.794 207.115 556.121 210.365 556.424 213.618C554.736 213.851 553.046 214.064 551.354 214.259C538.068 215.738 523.435 213.278 521.846 196.973C520.678 184.995 526.222 175.326 539.076 174.285Z"/><path fill="#FEFEFE" d="M459.381 157.261C461.621 156.431 464.136 156.894 465.934 158.468C467.732 160.042 468.525 162.474 467.999 164.806C467.474 167.138 465.715 168.995 463.416 169.645C460.05 170.597 456.533 168.721 455.449 165.393C454.365 162.066 456.101 158.476 459.381 157.261Z"/><path fill="#CBF8FE" fill-opacity="0.93333334" d="M417.376 125.831C419.338 127.36 420.522 128.128 421.817 130.225C421.084 130.154 417.513 128.245 417.141 127.732L417.801 127.569L418.045 127.137L417.376 125.831Z"/></svg>